
<svg width="400px" height="62px" viewBox="0 0 400 62" version="1.1" xmlns="http://www.w3.org/2000/svg" xmlns:xlink="http://www.w3.org/1999/xlink">
    <!-- Generator: Sketch 46.2 (44496) - http://www.bohemiancoding.com/sketch -->
    <desc>Created with Sketch.</desc>
    <defs></defs>
    <g id="Page-1" stroke="none" stroke-width="1" fill="none" fill-rule="evenodd">
        <g id="Group">
            <path d="M0.546,44.536 L13.251,44.536 L13.251,45.985 L7.728,45.985 L7.728,61 L6.09,61 L6.09,45.985 L0.546,45.985 L0.546,44.536 Z M20.076,61.273 C18.6339928,61.273 17.3670055,60.7480053 16.275,59.698 C15.1129942,58.5919945 14.532,57.1570088 14.532,55.393 C14.532,53.7269917 15.0429949,52.3340056 16.065,51.214 C17.1150052,50.0799943 18.4099923,49.513 19.95,49.513 C21.4760076,49.513 22.7639948,50.0799943 23.814,51.214 C24.8500052,52.3340056 25.368,53.7199917 25.368,55.372 C25.368,57.1080087 24.8080056,58.5429943 23.688,59.677 C22.6519948,60.7410053 21.4480069,61.273 20.076,61.273 Z M19.929,59.887 C20.937005,59.887 21.8329961,59.4670042 22.617,58.627 C23.3730038,57.7729957 23.751,56.6880066 23.751,55.372 C23.751,54.0139932 23.3450041,52.9080043 22.533,52.054 C21.7909963,51.2699961 20.9300049,50.878 19.95,50.878 C18.941995,50.878 18.0810036,51.2839959 17.367,52.096 C16.5829961,52.9920045 16.191,54.0909935 16.191,55.393 C16.191,56.7090066 16.5759962,57.8079956 17.346,58.69 C18.0600036,59.488004 18.920995,59.887 19.929,59.887 Z M34.923,44.536 L36.54,44.536 L36.54,61 L35.091,61 L34.944,59.173 C34.747999,59.4530014 34.552001,59.7014989 34.356,59.9185 C34.159999,60.1355011 33.964001,60.3209992 33.768,60.475 C33.0679965,61.0070027 32.2560046,61.273 31.332,61.273 C29.8899928,61.273 28.6930048,60.7130056 27.741,59.593 C26.8029953,58.4729944 26.334,57.115008 26.334,55.519 C26.334,53.8669917 26.830995,52.4600058 27.825,51.298 C28.833005,50.1079941 30.0929924,49.513 31.605,49.513 C32.2350032,49.513 32.8229973,49.6249989 33.369,49.849 C33.565001,49.9330004 33.7924987,50.0449993 34.0515,50.185 C34.3105013,50.3250007 34.6009984,50.492999 34.923,50.689 L34.923,44.536 Z M34.923,55.561 L34.923,52.327 C34.2649967,51.7529971 33.6910025,51.368001 33.201,51.172 C32.7109976,50.975999 32.2350023,50.878 31.773,50.878 C30.6249943,50.878 29.6940036,51.3609952 28.98,52.327 C28.3079966,53.2370046 27.972,54.293994 27.972,55.498 C27.972,56.7860064 28.3429963,57.8569957 29.085,58.711 C29.7710034,59.4950039 30.5829953,59.887 31.521,59.887 C32.4450046,59.887 33.2429966,59.4810041 33.915,58.669 C34.5870034,57.8569959 34.923,56.8210063 34.923,55.561 Z M47.145,53.734 L47.145,59.026 C47.145,59.2640012 47.1974995,59.4704991 47.3025,59.6455 C47.4075005,59.8205009 47.5999986,59.908 47.88,59.908 C47.9640004,59.908 48.0339997,59.9045 48.09,59.8975 C48.1460003,59.8905 48.2019997,59.8800001 48.258,59.866 C48.3420004,59.8379999 48.4154997,59.8100001 48.4785,59.782 C48.5415003,59.7539999 48.5939998,59.7330001 48.636,59.719 L48.636,60.895 C48.3839987,60.9790004 48.1320013,61.0384998 47.88,61.0735 C47.6279987,61.1085002 47.4320007,61.126 47.292,61.126 C46.5779964,61.126 46.1090011,60.9370019 45.885,60.559 C45.7029991,60.3209988 45.612,59.8100039 45.612,59.026 C45.4299991,59.3340015 45.2480009,59.6034988 45.066,59.8345 C44.8839991,60.0655012 44.7020009,60.2579992 44.52,60.412 C43.7919964,60.9860029 42.9450048,61.273 41.979,61.273 C40.9569949,61.273 40.0680038,60.972003 39.312,60.37 C38.5279961,59.7259968 38.136,58.907005 38.136,57.913 C38.136,56.6669938 38.7659937,55.7500029 40.026,55.162 C40.4880023,54.9379989 41.1004962,54.7420008 41.8635,54.574 C42.6265038,54.4059992 43.5399947,54.2520007 44.604,54.112 L45.612,54.007 C45.612,53.0269951 45.3635025,52.2605028 44.8665,51.7075 C44.3694975,51.1544972 43.6380048,50.878 42.672,50.878 C42.3079982,50.878 41.9475018,50.9234995 41.5905,51.0145 C41.2334982,51.1055005 40.8730018,51.248999 40.509,51.445 C40.312999,51.5570006 40.0960012,51.6899992 39.858,51.844 C39.6199988,51.9980008 39.3610014,52.1939988 39.081,52.432 L39.081,50.71 C40.271006,49.911996 41.5519931,49.513 42.924,49.513 C44.324007,49.513 45.4019962,49.9539956 46.158,50.836 C46.8160033,51.6060039 47.145,52.5719942 47.145,53.734 Z M45.612,55.939 L45.612,55.267 L44.898,55.351 C43.1479913,55.5330009 41.9160036,55.7779985 41.202,56.086 C40.2499952,56.4640019 39.774,57.0799957 39.774,57.934 C39.774,58.1860013 39.8299994,58.4274988 39.942,58.6585 C40.0540006,58.8895012 40.207999,59.0959991 40.404,59.278 C40.600001,59.4600009 40.8414986,59.6069994 41.1285,59.719 C41.4155014,59.8310006 41.7339983,59.887 42.084,59.887 C43.0360048,59.887 43.8689964,59.5020039 44.583,58.732 C45.2690034,57.9479961 45.612,57.0170054 45.612,55.939 Z M56.994,44.536 L58.506,44.536 L58.506,61 L56.994,61 L56.994,44.536 Z M69.237,53.734 L69.237,59.026 C69.237,59.2640012 69.2894995,59.4704991 69.3945,59.6455 C69.4995005,59.8205009 69.6919986,59.908 69.972,59.908 C70.0560004,59.908 70.1259997,59.9045 70.182,59.8975 C70.2380003,59.8905 70.2939997,59.8800001 70.35,59.866 C70.4340004,59.8379999 70.5074997,59.8100001 70.5705,59.782 C70.6335003,59.7539999 70.6859998,59.7330001 70.728,59.719 L70.728,60.895 C70.4759987,60.9790004 70.2240013,61.0384998 69.972,61.0735 C69.7199987,61.1085002 69.5240007,61.126 69.384,61.126 C68.6699964,61.126 68.2010011,60.9370019 67.977,60.559 C67.7949991,60.3209988 67.704,59.8100039 67.704,59.026 C67.5219991,59.3340015 67.3400009,59.6034988 67.158,59.8345 C66.9759991,60.0655012 66.7940009,60.2579992 66.612,60.412 C65.8839964,60.9860029 65.0370048,61.273 64.071,61.273 C63.0489949,61.273 62.1600038,60.972003 61.404,60.37 C60.6199961,59.7259968 60.228,58.907005 60.228,57.913 C60.228,56.6669938 60.8579937,55.7500029 62.118,55.162 C62.5800023,54.9379989 63.1924962,54.7420008 63.9555,54.574 C64.7185038,54.4059992 65.6319947,54.2520007 66.696,54.112 L67.704,54.007 C67.704,53.0269951 67.4555025,52.2605028 66.9585,51.7075 C66.4614975,51.1544972 65.7300048,50.878 64.764,50.878 C64.3999982,50.878 64.0395018,50.9234995 63.6825,51.0145 C63.3254982,51.1055005 62.9650018,51.248999 62.601,51.445 C62.404999,51.5570006 62.1880012,51.6899992 61.95,51.844 C61.7119988,51.9980008 61.4530014,52.1939988 61.173,52.432 L61.173,50.71 C62.363006,49.911996 63.6439931,49.513 65.016,49.513 C66.416007,49.513 67.4939962,49.9539956 68.25,50.836 C68.9080033,51.6060039 69.237,52.5719942 69.237,53.734 Z M67.704,55.939 L67.704,55.267 L66.99,55.351 C65.2399913,55.5330009 64.0080036,55.7779985 63.294,56.086 C62.3419952,56.4640019 61.866,57.0799957 61.866,57.934 C61.866,58.1860013 61.9219994,58.4274988 62.034,58.6585 C62.1460006,58.8895012 62.299999,59.0959991 62.496,59.278 C62.692001,59.4600009 62.9334986,59.6069994 63.2205,59.719 C63.5075014,59.8310006 63.8259982,59.887 64.176,59.887 C65.1280048,59.887 65.9609964,59.5020039 66.675,58.732 C67.3610034,57.9479961 67.704,57.0170054 67.704,55.939 Z M79.569,44.536 L81.207,44.536 L81.207,61 L79.569,61 L79.569,44.536 Z M93.366,53.482 L93.366,61 L91.854,61 L91.854,53.587 C91.854,52.8029961 91.5670029,52.1590025 90.993,51.655 C90.4189971,51.1369974 89.733004,50.878 88.935,50.878 C87.8709947,50.878 86.9540038,51.3189956 86.184,52.201 C85.4139962,53.0970045 85.029,54.1049944 85.029,55.225 L85.029,61 L83.601,61 L83.601,49.765 L84.924,49.765 L84.987,51.865 C85.3650019,51.2909971 85.8059975,50.8150019 86.31,50.437 C87.1360041,49.8209969 88.0669948,49.513 89.103,49.513 C90.307006,49.513 91.3149959,49.8769964 92.127,50.605 C92.9530041,51.3190036 93.366,52.277994 93.366,53.482 Z M96.516,49.744 L96.516,47.602 C96.516,46.607995 96.7049981,45.8520026 97.083,45.334 C97.5590024,44.6199964 98.3639943,44.263 99.498,44.263 C99.6240006,44.263 99.7359995,44.2665 99.834,44.2735 C99.9320005,44.2805 100.033499,44.2909999 100.1385,44.305 C100.243501,44.3190001 100.365999,44.3469998 100.506,44.389 C100.646001,44.4310002 100.813999,44.4799997 101.01,44.536 L101.01,45.922 C100.968,45.8659997 100.772002,45.8030004 100.422,45.733 C100.267999,45.7049999 100.131501,45.6840001 100.0125,45.67 C99.8934994,45.6559999 99.7920004,45.649 99.708,45.649 C99.1199971,45.649 98.6930013,45.8169983 98.427,46.153 C98.1609987,46.4890017 98.028,46.9719969 98.028,47.602 L98.028,49.744 L101.01,49.744 L101.01,51.109 L98.028,51.109 L98.028,61 L96.516,61 L96.516,51.109 L94.605,51.109 L94.605,49.744 L96.516,49.744 Z M107.73,61.273 C106.287993,61.273 105.021005,60.7480053 103.929,59.698 C102.766994,58.5919945 102.186,57.1570088 102.186,55.393 C102.186,53.7269917 102.696995,52.3340056 103.719,51.214 C104.769005,50.0799943 106.063992,49.513 107.604,49.513 C109.130008,49.513 110.417995,50.0799943 111.468,51.214 C112.504005,52.3340056 113.022,53.7199917 113.022,55.372 C113.022,57.1080087 112.462006,58.5429943 111.342,59.677 C110.305995,60.7410053 109.102007,61.273 107.73,61.273 Z M107.583,59.887 C108.591005,59.887 109.486996,59.4670042 110.271,58.627 C111.027004,57.7729957 111.405,56.6880066 111.405,55.372 C111.405,54.0139932 110.999004,52.9080043 110.187,52.054 C109.444996,51.2699961 108.584005,50.878 107.604,50.878 C106.595995,50.878 105.735004,51.2839959 105.021,52.096 C104.236996,52.9920045 103.845,54.0909935 103.845,55.393 C103.845,56.7090066 104.229996,57.8079956 105,58.69 C105.714004,59.488004 106.574995,59.887 107.583,59.887 Z M120.75,49.765 L120.75,51.277 C120.595999,51.2209997 120.47,51.1755002 120.372,51.1405 C120.274,51.1054998 120.19,51.0810001 120.12,51.067 C120.05,51.0529999 119.9765,51.0425 119.8995,51.0355 C119.8225,51.0285 119.721001,51.025 119.595,51.025 C118.572995,51.025 117.733003,51.521995 117.075,52.516 C116.514997,53.4260046 116.235,54.4409944 116.235,55.561 L116.235,61 L114.723,61 L114.723,49.765 L116.109,49.765 L116.214,51.697 C116.564002,51.1089971 116.892998,50.6890013 117.201,50.437 C117.831003,49.9189974 118.586996,49.66 119.469,49.66 C119.707001,49.66 119.927499,49.6669999 120.1305,49.681 C120.333501,49.6950001 120.539999,49.7229998 120.75,49.765 Z M138.852,53.797 L138.852,61 L137.319,61 L137.319,53.44 C137.319,52.641996 137.046003,51.9980025 136.5,51.508 C136.037998,51.0879979 135.492003,50.878 134.862,50.878 C133.923995,50.878 133.084004,51.3119957 132.342,52.18 C131.613996,53.0340043 131.25,54.0909937 131.25,55.351 L131.25,61 L129.717,61 L129.717,53.44 C129.717,52.6839962 129.458003,52.0750023 128.94,51.613 C128.449998,51.1229976 127.890003,50.878 127.26,50.878 C126.349995,50.878 125.538004,51.2839959 124.824,52.096 C124.039996,52.9920045 123.648,54.0979934 123.648,55.414 L123.648,61 L122.115,61 L122.115,49.765 L123.543,49.765 L123.606,51.55 C124.012002,50.8919967 124.592996,50.3740019 125.349,49.996 C126.021003,49.6739984 126.699997,49.513 127.386,49.513 C128.450005,49.513 129.345996,49.8209969 130.074,50.437 C130.606003,50.8990023 130.941999,51.3609977 131.082,51.823 C131.362001,51.3049974 131.760997,50.8360021 132.279,50.416 C133.091004,49.813997 133.986995,49.513 134.967,49.513 C136.157006,49.513 137.080997,49.8699964 137.739,50.584 C138.481004,51.3960041 138.852,52.4669934 138.852,53.797 Z M149.604,53.734 L149.604,59.026 C149.604,59.2640012 149.656499,59.4704991 149.7615,59.6455 C149.866501,59.8205009 150.058999,59.908 150.339,59.908 C150.423,59.908 150.493,59.9045 150.549,59.8975 C150.605,59.8905 150.661,59.8800001 150.717,59.866 C150.801,59.8379999 150.8745,59.8100001 150.9375,59.782 C151.0005,59.7539999 151.053,59.7330001 151.095,59.719 L151.095,60.895 C150.842999,60.9790004 150.591001,61.0384998 150.339,61.0735 C150.086999,61.1085002 149.891001,61.126 149.751,61.126 C149.036996,61.126 148.568001,60.9370019 148.344,60.559 C148.161999,60.3209988 148.071,59.8100039 148.071,59.026 C147.888999,59.3340015 147.707001,59.6034988 147.525,59.8345 C147.342999,60.0655012 147.161001,60.2579992 146.979,60.412 C146.250996,60.9860029 145.404005,61.273 144.438,61.273 C143.415995,61.273 142.527004,60.972003 141.771,60.37 C140.986996,59.7259968 140.595,58.907005 140.595,57.913 C140.595,56.6669938 141.224994,55.7500029 142.485,55.162 C142.947002,54.9379989 143.559496,54.7420008 144.3225,54.574 C145.085504,54.4059992 145.998995,54.2520007 147.063,54.112 L148.071,54.007 C148.071,53.0269951 147.822502,52.2605028 147.3255,51.7075 C146.828498,51.1544972 146.097005,50.878 145.131,50.878 C144.766998,50.878 144.406502,50.9234995 144.0495,51.0145 C143.692498,51.1055005 143.332002,51.248999 142.968,51.445 C142.771999,51.5570006 142.555001,51.6899992 142.317,51.844 C142.078999,51.9980008 141.820001,52.1939988 141.54,52.432 L141.54,50.71 C142.730006,49.911996 144.010993,49.513 145.383,49.513 C146.783007,49.513 147.860996,49.9539956 148.617,50.836 C149.275003,51.6060039 149.604,52.5719942 149.604,53.734 Z M148.071,55.939 L148.071,55.267 L147.357,55.351 C145.606991,55.5330009 144.375004,55.7779985 143.661,56.086 C142.708995,56.4640019 142.233,57.0799957 142.233,57.934 C142.233,58.1860013 142.288999,58.4274988 142.401,58.6585 C142.513001,58.8895012 142.666999,59.0959991 142.863,59.278 C143.059001,59.4600009 143.300499,59.6069994 143.5875,59.719 C143.874501,59.8310006 144.192998,59.887 144.543,59.887 C145.495005,59.887 146.327996,59.5020039 147.042,58.732 C147.728003,57.9479961 148.071,57.0170054 148.071,55.939 Z M161.91,50.752 L161.91,52.726 C161.125996,51.9839963 160.321004,51.4520016 159.495,51.13 C159.256999,51.0319995 159.012001,50.9655002 158.76,50.9305 C158.507999,50.8954998 158.256001,50.878 158.004,50.878 C156.841994,50.878 155.890004,51.3119957 155.148,52.18 C154.405996,53.0760045 154.035,54.1399938 154.035,55.372 C154.035,56.6320063 154.419996,57.7099955 155.19,58.606 C155.960004,59.4600043 156.925994,59.887 158.088,59.887 C158.816004,59.887 159.480997,59.7295016 160.083,59.4145 C160.685003,59.0994984 161.293997,58.6270032 161.91,57.997 L161.91,59.992 C161.167996,60.4540023 160.496003,60.782999 159.894,60.979 C159.291997,61.175001 158.683003,61.273 158.067,61.273 C156.498992,61.273 155.155006,60.7130056 154.035,59.593 C152.942995,58.4309942 152.397,57.0310082 152.397,55.393 C152.397,53.782992 152.935995,52.3970058 154.014,51.235 C155.106005,50.0869943 156.463992,49.513 158.088,49.513 C158.914004,49.513 159.683996,49.6529986 160.398,49.933 C160.818002,50.0870008 161.321997,50.359998 161.91,50.752 Z M163.527,49.765 L165.039,49.765 L165.039,61 L163.527,61 L163.527,49.765 Z M164.262,45.019 C164.556001,45.019 164.800999,45.116999 164.997,45.313 C165.193001,45.509001 165.291,45.7889982 165.291,46.153 C165.291,46.5170018 165.200001,46.796999 165.018,46.993 C164.835999,47.189001 164.584002,47.287 164.262,47.287 C163.939998,47.287 163.691501,47.1750011 163.5165,46.951 C163.341499,46.7269989 163.254,46.4680015 163.254,46.174 C163.254,45.7119977 163.358999,45.4040008 163.569,45.25 C163.779001,45.0959992 164.009999,45.019 164.262,45.019 Z M172.40393,61.2563477 C170.811148,61.2563477 169.539677,60.7282768 168.589477,59.6721191 C167.639276,58.6159615 167.164184,57.2026456 167.164184,55.4321289 C167.164184,53.6411043 167.640985,52.2243704 168.594604,51.1818848 C169.548222,50.1393991 170.84191,49.6181641 172.475707,49.6181641 C174.109504,49.6181641 175.403192,50.1393991 176.356811,51.1818848 C177.310429,52.2243704 177.78723,53.6342685 177.78723,55.4116211 C177.78723,57.2299896 177.30872,58.6586862 176.351684,59.6977539 C175.394648,60.7368216 174.078743,61.2563477 172.40393,61.2563477 Z M172.434691,59.7387695 C174.574351,59.7387695 175.644164,58.2964011 175.644164,55.4116211 C175.644164,52.5610209 174.588022,51.1357422 172.475707,51.1357422 C170.370228,51.1357422 169.317504,52.5678568 169.317504,55.4321289 C169.317504,58.303237 170.356556,59.7387695 172.434691,59.7387695 Z M170.958129,47.8442383 L173.42932,44.5527344 L175.767211,44.5527344 L172.475707,47.8442383 L170.958129,47.8442383 Z M189.635414,53.482 L189.635414,61 L188.123414,61 L188.123414,53.587 C188.123414,52.8029961 187.836417,52.1590025 187.262414,51.655 C186.688411,51.1369974 186.002418,50.878 185.204414,50.878 C184.140409,50.878 183.223418,51.3189956 182.453414,52.201 C181.68341,53.0970045 181.298414,54.1049944 181.298414,55.225 L181.298414,61 L179.870414,61 L179.870414,49.765 L181.193414,49.765 L181.256414,51.865 C181.634416,51.2909971 182.075412,50.8150019 182.579414,50.437 C183.405418,49.8209969 184.336409,49.513 185.372414,49.513 C186.57642,49.513 187.58441,49.8769964 188.396414,50.605 C189.222418,51.3190036 189.635414,52.277994 189.635414,53.482 Z M206.183414,44.536 L207.800414,44.536 L207.800414,61 L206.351414,61 L206.204414,59.173 C206.008413,59.4530014 205.812415,59.7014989 205.616414,59.9185 C205.420413,60.1355011 205.224415,60.3209992 205.028414,60.475 C204.328411,61.0070027 203.516419,61.273 202.592414,61.273 C201.150407,61.273 199.953419,60.7130056 199.001414,59.593 C198.063409,58.4729944 197.594414,57.115008 197.594414,55.519 C197.594414,53.8669917 198.091409,52.4600058 199.085414,51.298 C200.093419,50.1079941 201.353407,49.513 202.865414,49.513 C203.495417,49.513 204.083411,49.6249989 204.629414,49.849 C204.825415,49.9330004 205.052913,50.0449993 205.311914,50.185 C205.570915,50.3250007 205.861412,50.492999 206.183414,50.689 L206.183414,44.536 Z M206.183414,55.561 L206.183414,52.327 C205.525411,51.7529971 204.951417,51.368001 204.461414,51.172 C203.971412,50.975999 203.495416,50.878 203.033414,50.878 C201.885408,50.878 200.954418,51.3609952 200.240414,52.327 C199.568411,53.2370046 199.232414,54.293994 199.232414,55.498 C199.232414,56.7860064 199.60341,57.8569957 200.345414,58.711 C201.031417,59.4950039 201.843409,59.887 202.781414,59.887 C203.705419,59.887 204.503411,59.4810041 205.175414,58.669 C205.847417,57.8569959 206.183414,56.8210063 206.183414,55.561 Z M219.539414,54.931 L210.992414,54.931 C210.992414,56.5410081 211.36691,57.7694958 212.115914,58.6165 C212.864918,59.4635042 213.848408,59.887 215.066414,59.887 C215.990419,59.887 216.87941,59.5930029 217.733414,59.005 C217.971415,58.8509992 218.223413,58.6585012 218.489414,58.4275 C218.755415,58.1964988 219.042413,57.9270015 219.350414,57.619 L219.350414,59.446 C219.014412,59.6980013 218.702915,59.9184991 218.415914,60.1075 C218.128913,60.2965009 217.859415,60.4539994 217.607414,60.58 C216.72541,61.0420023 215.843418,61.273 214.961414,61.273 C213.435406,61.273 212.140419,60.7480053 211.076414,59.698 C209.928408,58.5919945 209.354414,57.1570088 209.354414,55.393 C209.354414,53.7269917 209.872409,52.3340056 210.908414,51.214 C211.958419,50.0799943 213.253406,49.513 214.793414,49.513 C216.291422,49.513 217.48141,50.0589945 218.363414,51.151 C219.147418,52.145005 219.539414,53.4049924 219.539414,54.931 Z M211.202414,53.65 L217.775414,53.65 C217.607413,52.6979952 217.246917,51.9875023 216.693914,51.5185 C216.140911,51.0494977 215.472418,50.815 214.688414,50.815 C213.82041,50.815 213.085417,51.0879973 212.483414,51.634 C211.923411,52.1380025 211.496416,52.8099958 211.202414,53.65 Z M221.198414,44.536 L222.710414,44.536 L222.710414,61 L221.198414,61 L221.198414,44.536 Z M231.404414,44.515 L241.652414,44.515 L241.652414,45.964 L233.063414,45.964 L233.063414,51.655 L241.337414,51.655 L241.337414,53.104 L233.063414,53.104 L233.063414,59.551 L241.715414,59.551 L241.715414,61 L231.404414,61 L231.404414,44.515 Z M243.374414,60.034 L243.374414,58.207 C244.242418,58.9070035 245.12441,59.3969986 246.020414,59.677 C246.286415,59.7470004 246.545413,59.7994998 246.797414,59.8345 C247.049415,59.8695002 247.308413,59.887 247.574414,59.887 C248.428418,59.887 249.135411,59.691002 249.695414,59.299 C250.269417,58.8789979 250.556414,58.4100026 250.556414,57.892 C250.556414,57.6119986 250.451415,57.3250015 250.241414,57.031 C249.947413,56.6669982 249.16342,56.3380015 247.889414,56.044 C246.377407,55.6659981 245.369417,55.3510013 244.865414,55.099 C243.885409,54.5389972 243.395414,53.755005 243.395414,52.747 C243.395414,51.8089953 243.80141,51.039003 244.613414,50.437 C245.439418,49.8209969 246.468408,49.513 247.700414,49.513 C248.260417,49.513 248.764412,49.5619995 249.212414,49.66 C249.660416,49.7580005 250.080412,49.8874992 250.472414,50.0485 C250.864416,50.2095008 251.228412,50.4089988 251.564414,50.647 L251.564414,52.474 C250.976411,51.9839976 250.360417,51.5955014 249.716414,51.3085 C249.072411,51.0214986 248.393418,50.878 247.679414,50.878 C246.96541,50.878 246.349417,51.0389984 245.831414,51.361 C245.299411,51.6830016 245.033414,52.1029974 245.033414,52.621 C245.033414,53.3070034 245.663408,53.852998 246.923414,54.259 C247.511417,54.4270008 248.092411,54.5949992 248.666414,54.763 C249.240417,54.9310008 249.821411,55.0989992 250.409414,55.267 C251.68342,55.8130027 252.320414,56.6389945 252.320414,57.745 C252.320414,58.6830047 251.879418,59.5089964 250.997414,60.223 C250.10141,60.9230035 248.988421,61.273 247.658414,61.273 C247.070411,61.273 246.496417,61.2100006 245.936414,61.084 C245.04041,60.887999 244.186418,60.5380025 243.374414,60.034 Z M255.323414,46.447 L256.709414,46.447 L256.709414,49.744 L259.670414,49.744 L259.670414,51.109 L256.709414,51.109 L256.709414,58.249 C256.709414,58.8370029 256.817913,59.2569987 257.034914,59.509 C257.251915,59.7610013 257.626411,59.887 258.158414,59.887 C258.466416,59.887 258.728913,59.8520004 258.945914,59.782 C259.162915,59.7119997 259.404413,59.6210006 259.670414,59.509 L259.670414,60.874 C259.446413,60.9440004 259.176916,61.0104997 258.861914,61.0735 C258.546912,61.1365003 258.228416,61.168 257.906414,61.168 C257.06641,61.168 256.415416,60.9790019 255.953414,60.601 C255.435411,60.208998 255.176414,59.5790043 255.176414,58.711 L255.176414,51.109 L253.286414,51.109 L253.286414,49.744 L255.176414,49.744 L255.323414,46.447 Z M269.918414,53.734 L269.918414,59.026 C269.918414,59.2640012 269.970914,59.4704991 270.075914,59.6455 C270.180915,59.8205009 270.373413,59.908 270.653414,59.908 C270.737414,59.908 270.807414,59.9045 270.863414,59.8975 C270.919414,59.8905 270.975414,59.8800001 271.031414,59.866 C271.115414,59.8379999 271.188914,59.8100001 271.251914,59.782 C271.314914,59.7539999 271.367414,59.7330001 271.409414,59.719 L271.409414,60.895 C271.157413,60.9790004 270.905415,61.0384998 270.653414,61.0735 C270.401413,61.1085002 270.205415,61.126 270.065414,61.126 C269.35141,61.126 268.882415,60.9370019 268.658414,60.559 C268.476413,60.3209988 268.385414,59.8100039 268.385414,59.026 C268.203413,59.3340015 268.021415,59.6034988 267.839414,59.8345 C267.657413,60.0655012 267.475415,60.2579992 267.293414,60.412 C266.56541,60.9860029 265.718419,61.273 264.752414,61.273 C263.730409,61.273 262.841418,60.972003 262.085414,60.37 C261.30141,59.7259968 260.909414,58.907005 260.909414,57.913 C260.909414,56.6669938 261.539408,55.7500029 262.799414,55.162 C263.261416,54.9379989 263.87391,54.7420008 264.636914,54.574 C265.399918,54.4059992 266.313409,54.2520007 267.377414,54.112 L268.385414,54.007 C268.385414,53.0269951 268.136917,52.2605028 267.639914,51.7075 C267.142912,51.1544972 266.411419,50.878 265.445414,50.878 C265.081412,50.878 264.720916,50.9234995 264.363914,51.0145 C264.006912,51.1055005 263.646416,51.248999 263.282414,51.445 C263.086413,51.5570006 262.869415,51.6899992 262.631414,51.844 C262.393413,51.9980008 262.134415,52.1939988 261.854414,52.432 L261.854414,50.71 C263.04442,49.911996 264.325407,49.513 265.697414,49.513 C267.097421,49.513 268.17541,49.9539956 268.931414,50.836 C269.589417,51.6060039 269.918414,52.5719942 269.918414,53.734 Z M268.385414,55.939 L268.385414,55.267 L267.671414,55.351 C265.921405,55.5330009 264.689418,55.7779985 263.975414,56.086 C263.023409,56.4640019 262.547414,57.0799957 262.547414,57.934 C262.547414,58.1860013 262.603414,58.4274988 262.715414,58.6585 C262.827415,58.8895012 262.981413,59.0959991 263.177414,59.278 C263.373415,59.4600009 263.614913,59.6069994 263.901914,59.719 C264.188915,59.8310006 264.507412,59.887 264.857414,59.887 C265.809419,59.887 266.64241,59.5020039 267.356414,58.732 C268.042417,57.9479961 268.385414,57.0170054 268.385414,55.939 Z M280.901414,44.536 L282.518414,44.536 L282.518414,61 L281.069414,61 L280.922414,59.173 C280.726413,59.4530014 280.530415,59.7014989 280.334414,59.9185 C280.138413,60.1355011 279.942415,60.3209992 279.746414,60.475 C279.046411,61.0070027 278.234419,61.273 277.310414,61.273 C275.868407,61.273 274.671419,60.7130056 273.719414,59.593 C272.781409,58.4729944 272.312414,57.115008 272.312414,55.519 C272.312414,53.8669917 272.809409,52.4600058 273.803414,51.298 C274.811419,50.1079941 276.071407,49.513 277.583414,49.513 C278.213417,49.513 278.801411,49.6249989 279.347414,49.849 C279.543415,49.9330004 279.770913,50.0449993 280.029914,50.185 C280.288915,50.3250007 280.579412,50.492999 280.901414,50.689 L280.901414,44.536 Z M280.901414,55.561 L280.901414,52.327 C280.243411,51.7529971 279.669417,51.368001 279.179414,51.172 C278.689412,50.975999 278.213416,50.878 277.751414,50.878 C276.603408,50.878 275.672418,51.3609952 274.958414,52.327 C274.286411,53.2370046 273.950414,54.293994 273.950414,55.498 C273.950414,56.7860064 274.32141,57.8569957 275.063414,58.711 C275.749417,59.4950039 276.561409,59.887 277.499414,59.887 C278.423419,59.887 279.221411,59.4810041 279.893414,58.669 C280.565417,57.8569959 280.901414,56.8210063 280.901414,55.561 Z M289.637414,61.273 C288.195407,61.273 286.92842,60.7480053 285.836414,59.698 C284.674408,58.5919945 284.093414,57.1570088 284.093414,55.393 C284.093414,53.7269917 284.604409,52.3340056 285.626414,51.214 C286.676419,50.0799943 287.971406,49.513 289.511414,49.513 C291.037422,49.513 292.325409,50.0799943 293.375414,51.214 C294.411419,52.3340056 294.929414,53.7199917 294.929414,55.372 C294.929414,57.1080087 294.36942,58.5429943 293.249414,59.677 C292.213409,60.7410053 291.009421,61.273 289.637414,61.273 Z M289.490414,59.887 C290.498419,59.887 291.39441,59.4670042 292.178414,58.627 C292.934418,57.7729957 293.312414,56.6880066 293.312414,55.372 C293.312414,54.0139932 292.906418,52.9080043 292.094414,52.054 C291.35241,51.2699961 290.491419,50.878 289.511414,50.878 C288.503409,50.878 287.642418,51.2839959 286.928414,52.096 C286.14441,52.9920045 285.752414,54.0909935 285.752414,55.393 C285.752414,56.7090066 286.13741,57.8079956 286.907414,58.69 C287.621418,59.488004 288.482409,59.887 289.490414,59.887 Z M311.204414,44.536 L312.821414,44.536 L312.821414,61 L311.372414,61 L311.225414,59.173 C311.029413,59.4530014 310.833415,59.7014989 310.637414,59.9185 C310.441413,60.1355011 310.245415,60.3209992 310.049414,60.475 C309.349411,61.0070027 308.537419,61.273 307.613414,61.273 C306.171407,61.273 304.974419,60.7130056 304.022414,59.593 C303.084409,58.4729944 302.615414,57.115008 302.615414,55.519 C302.615414,53.8669917 303.112409,52.4600058 304.106414,51.298 C305.114419,50.1079941 306.374407,49.513 307.886414,49.513 C308.516417,49.513 309.104411,49.6249989 309.650414,49.849 C309.846415,49.9330004 310.073913,50.0449993 310.332914,50.185 C310.591915,50.3250007 310.882412,50.492999 311.204414,50.689 L311.204414,44.536 Z M311.204414,55.561 L311.204414,52.327 C310.546411,51.7529971 309.972417,51.368001 309.482414,51.172 C308.992412,50.975999 308.516416,50.878 308.054414,50.878 C306.906408,50.878 305.975418,51.3609952 305.261414,52.327 C304.589411,53.2370046 304.253414,54.293994 304.253414,55.498 C304.253414,56.7860064 304.62441,57.8569957 305.366414,58.711 C306.052417,59.4950039 306.864409,59.887 307.802414,59.887 C308.726419,59.887 309.524411,59.4810041 310.196414,58.669 C310.868417,57.8569959 311.204414,56.8210063 311.204414,55.561 Z M324.560414,54.931 L316.013414,54.931 C316.013414,56.5410081 316.38791,57.7694958 317.136914,58.6165 C317.885918,59.4635042 318.869408,59.887 320.087414,59.887 C321.011419,59.887 321.90041,59.5930029 322.754414,59.005 C322.992415,58.8509992 323.244413,58.6585012 323.510414,58.4275 C323.776415,58.1964988 324.063413,57.9270015 324.371414,57.619 L324.371414,59.446 C324.035412,59.6980013 323.723915,59.9184991 323.436914,60.1075 C323.149913,60.2965009 322.880415,60.4539994 322.628414,60.58 C321.74641,61.0420023 320.864418,61.273 319.982414,61.273 C318.456406,61.273 317.161419,60.7480053 316.097414,59.698 C314.949408,58.5919945 314.375414,57.1570088 314.375414,55.393 C314.375414,53.7269917 314.893409,52.3340056 315.929414,51.214 C316.979419,50.0799943 318.274406,49.513 319.814414,49.513 C321.312422,49.513 322.50241,50.0589945 323.384414,51.151 C324.168418,52.145005 324.560414,53.4049924 324.560414,54.931 Z M316.223414,53.65 L322.796414,53.65 C322.628413,52.6979952 322.267917,51.9875023 321.714914,51.5185 C321.161911,51.0494977 320.493418,50.815 319.709414,50.815 C318.84141,50.815 318.106417,51.0879973 317.504414,51.634 C316.944411,52.1380025 316.517416,52.8099958 316.223414,53.65 Z M332.939414,61 L332.939414,44.536 L335.102414,44.536 L341.486414,58.165 L348.080414,44.536 L350.117414,44.536 L350.117414,61 L348.626414,61 L348.626414,46.699 L341.843414,61 L341.129414,61 L334.451414,46.72 L334.451414,61 L332.939414,61 Z M361.307543,60.6411133 C359.954021,61.0512716 358.795341,61.2563477 357.831469,61.2563477 C356.190836,61.2563477 354.852714,60.7111871 353.817064,59.6208496 C352.781415,58.5305121 352.263598,57.1171962 352.263598,55.3808594 C352.263598,53.6923744 352.719892,52.3081109 353.632494,51.2280273 C354.545096,50.1479438 355.712321,49.6079102 357.134203,49.6079102 C358.48089,49.6079102 359.521651,50.086421 360.256518,51.043457 C360.991385,52.0004931 361.358812,53.360831 361.358812,55.1245117 L361.348559,55.75 L354.324633,55.75 C354.61858,58.395521 355.913977,59.7182617 358.210863,59.7182617 C359.051688,59.7182617 360.083904,59.492678 361.307543,59.0415039 L361.307543,60.6411133 Z M354.416918,54.2324219 L359.328539,54.2324219 C359.328539,52.1611225 358.556086,51.1254883 357.011156,51.1254883 C355.459391,51.1254883 354.594653,52.1611225 354.416918,54.2324219 Z M355.442309,47.8442383 L357.9135,44.5527344 L360.251391,44.5527344 L356.959887,47.8442383 L355.442309,47.8442383 Z M363.980121,49.765 L365.870121,49.765 L368.579121,53.944 L371.330121,49.765 L373.094121,49.765 L369.461121,54.994 L373.556121,61 L371.624121,61 L368.474121,56.065 L365.303121,61 L363.518121,61 L367.634121,54.994 L363.980121,49.765 Z M375.089121,49.765 L376.601121,49.765 L376.601121,61 L375.089121,61 L375.089121,49.765 Z M375.824121,45.019 C376.118123,45.019 376.36312,45.116999 376.559121,45.313 C376.755122,45.509001 376.853121,45.7889982 376.853121,46.153 C376.853121,46.5170018 376.762122,46.796999 376.580121,46.993 C376.39812,47.189001 376.146123,47.287 375.824121,47.287 C375.502119,47.287 375.253622,47.1750011 375.078621,46.951 C374.90362,46.7269989 374.816121,46.4680015 374.816121,46.174 C374.816121,45.7119977 374.92112,45.4040008 375.131121,45.25 C375.341122,45.0959992 375.57212,45.019 375.824121,45.019 Z M387.710121,50.752 L387.710121,52.726 C386.926117,51.9839963 386.121125,51.4520016 385.295121,51.13 C385.05712,51.0319995 384.812122,50.9655002 384.560121,50.9305 C384.30812,50.8954998 384.056122,50.878 383.804121,50.878 C382.642115,50.878 381.690125,51.3119957 380.948121,52.18 C380.206117,53.0760045 379.835121,54.1399938 379.835121,55.372 C379.835121,56.6320063 380.220117,57.7099955 380.990121,58.606 C381.760125,59.4600043 382.726115,59.887 383.888121,59.887 C384.616125,59.887 385.281118,59.7295016 385.883121,59.4145 C386.485124,59.0994984 387.094118,58.6270032 387.710121,57.997 L387.710121,59.992 C386.968117,60.4540023 386.296124,60.782999 385.694121,60.979 C385.092118,61.175001 384.483124,61.273 383.867121,61.273 C382.299113,61.273 380.955127,60.7130056 379.835121,59.593 C378.743116,58.4309942 378.197121,57.0310082 378.197121,55.393 C378.197121,53.782992 378.736116,52.3970058 379.814121,51.235 C380.906127,50.0869943 382.264113,49.513 383.888121,49.513 C384.714125,49.513 385.484118,49.6529986 386.198121,49.933 C386.618123,50.0870008 387.122118,50.359998 387.710121,50.752 Z M394.682121,61.273 C393.240114,61.273 391.973127,60.7480053 390.881121,59.698 C389.719115,58.5919945 389.138121,57.1570088 389.138121,55.393 C389.138121,53.7269917 389.649116,52.3340056 390.671121,51.214 C391.721126,50.0799943 393.016113,49.513 394.556121,49.513 C396.082129,49.513 397.370116,50.0799943 398.420121,51.214 C399.456126,52.3340056 399.974121,53.7199917 399.974121,55.372 C399.974121,57.1080087 399.414127,58.5429943 398.294121,59.677 C397.258116,60.7410053 396.054128,61.273 394.682121,61.273 Z M394.535121,59.887 C395.543126,59.887 396.439117,59.4670042 397.223121,58.627 C397.979125,57.7729957 398.357121,56.6880066 398.357121,55.372 C398.357121,54.0139932 397.951125,52.9080043 397.139121,52.054 C396.397117,51.2699961 395.536126,50.878 394.556121,50.878 C393.548116,50.878 392.687125,51.2839959 391.973121,52.096 C391.189117,52.9920045 390.797121,54.0909935 390.797121,55.393 C390.797121,56.7090066 391.182117,57.8079956 391.952121,58.69 C392.666125,59.488004 393.527116,59.887 394.535121,59.887 Z" id="Toda-la-Información" fill="#FFFFFF"></path>
            <g id="logo_poderedomex">
                <path d="M1.15213407,1.95584263 C1.36161299,2.64400948 1.5012656,3.76680802 1.5012656,5.36045757 L1.5012656,29.1203236 C1.5012656,31.0761662 1.39652614,32.4887192 1.15213407,33.3942019 C0.942655145,34.2634653 0.558610456,35.0602901 0.0349131535,35.8208955 L11.5213407,35.8208955 C10.9976434,35.0602901 10.6485118,34.2634653 10.4390329,33.3942019 C10.1946408,32.5249385 10.0899014,31.0761662 10.0899014,29.1203236 L10.0899014,4.49119418 C12.3243432,4.52741349 14.0700009,5.10692242 15.3268744,6.22972096 C16.6186611,7.38873881 17.2470978,8.94616905 17.2470978,10.9020117 C17.2470978,12.8940736 16.6884874,14.5963811 15.5712665,15.9364955 C14.4540456,17.2766099 12.7782142,18.4356277 10.5088592,19.3048911 L10.6485118,19.3048911 C11.6609933,19.3773297 12.3941695,19.413549 12.8480405,19.413549 C16.8979663,19.413549 20.0401501,18.5442856 22.3793314,16.6971009 C24.6835995,14.8861356 25.8706468,12.3870033 25.8706468,9.19970421 C25.8706468,6.4108175 24.8232522,4.16522041 22.7284629,2.49913225 C20.6336737,0.833044082 17.8057083,0 14.2096535,0 L0,0 C0.558610456,0.615728234 0.907741992,1.26767578 1.15213407,1.95584263 Z" id="Shape" fill="#FFFFFF"></path>
                <path d="M41.8841047,7.67849328 C43.8285193,5.54155411 46.5066753,4.45497487 49.8451985,4.45497487 C53.33047,4.45497487 56.1553742,5.79508927 58.3565983,8.51153736 C60.4844483,11.2279855 61.5850603,14.8136969 61.5850603,19.2686718 C61.5850603,23.0354798 60.5945095,25.9692438 58.6500948,28.1061829 C56.6689932,30.2431221 53.9908372,31.293482 50.6156269,31.293482 C47.1303554,31.293482 44.3054512,29.9533676 42.1776012,27.2007002 C40.0497512,24.4842521 38.9858263,20.8985407 38.9858263,16.3711272 C38.9858263,12.6767578 39.93969,9.77921314 41.9207917,7.64227397 L41.8841047,7.67849328 Z M64.2265292,30.931289 C66.244318,29.2652008 67.8218619,27.2369195 68.959161,24.9551031 C70.0964601,22.6370674 70.6467662,20.2828124 70.6467662,17.8923381 C70.6467662,12.6043192 68.7390386,8.33044082 64.9235835,4.99826449 C61.1081284,1.66608816 56.2287483,0 50.2120692,0 C47.5706002,0 45.0391925,0.434631695 42.6545331,1.26767578 C40.2331866,2.10071986 38.1420237,3.29595702 36.2709832,4.81716795 C34.2165074,6.55569473 32.6389635,8.58397597 31.5383514,10.8657924 C30.4010523,13.1476088 29.8507463,15.4656445 29.8507463,17.8561188 C29.8507463,23.1079184 31.7217867,27.4180161 35.5739289,30.7864117 C39.389384,34.1548074 44.2687641,35.8208955 50.2120692,35.8208955 C52.8902251,35.8208955 55.4583199,35.4224831 57.8429793,34.5894391 C60.2276388,33.7201757 62.3554887,32.5249385 64.2265292,30.931289 Z" id="Shape" fill="#FFFFFF"></path>
                <path d="M89.2738,35.7846762 C92.381808,35.7846762 94.9896767,35.4949218 97.0616821,34.9154128 C99.0979632,34.3359039 100.884175,33.3942019 102.348868,32.0903068 C104.313701,30.35178 105.849843,28.2510602 106.885845,25.8968052 C107.921848,23.5063308 108.457711,20.8623214 108.457711,17.9647767 C108.457711,12.3145647 106.600051,7.89580912 102.991904,4.74472934 C99.3480328,1.55743024 94.2751921,0 87.7376581,0 L74.6268657,0 C75.1627291,0.543289619 75.5199714,1.15901785 75.770041,1.73852678 C75.9843864,2.35425501 76.1272833,3.40461494 76.1272833,4.81716795 L76.1272833,30.1706835 C76.1272833,31.8367717 76.0201106,32.9957895 75.770041,33.756395 C75.5199714,34.5170004 75.1627291,35.2051673 74.6268657,35.8208955 L89.2738,35.8208955 L89.2738,35.7846762 Z M84.9154439,4.81716795 L84.9154439,4.81716795 C85.5942043,4.70851003 86.2729646,4.5998521 86.9160008,4.5636328 C87.5590369,4.52741349 88.1663488,4.45497487 88.7379365,4.45497487 C92.0960141,4.45497487 94.7396071,5.65021203 96.7044398,8.07690566 C98.6335482,10.46738 99.6338266,13.763337 99.6338266,17.9285574 C99.6338266,22.0213392 98.6335482,25.2810769 96.6329913,27.7077706 C94.6324344,30.1344642 92.0245657,31.3297013 88.7379365,31.3297013 C88.0949004,31.3297013 87.4875885,31.293482 86.8445523,31.2210434 C86.2015162,31.1123855 85.55848,31.0037276 84.8797197,30.822631 L84.8797197,4.81716795 L84.9154439,4.81716795 Z" id="Shape" fill="#FFFFFF"></path>
                <path d="M136.318408,28.3597181 C135.102938,29.4462973 133.783284,30.1706835 132.394175,30.6415345 C131.005066,31.1123855 129.338135,31.3297013 127.393382,31.3297013 C126.837738,31.3297013 126.247367,31.293482 125.622268,31.2210434 C124.997169,31.1486048 124.267887,31.0037276 123.434421,30.7864117 L123.434421,19.3773297 L126.594644,19.3773297 C127.462838,19.3773297 128.261575,19.522207 128.921402,19.7757421 C129.581229,20.0292773 130.136873,20.3914704 130.588333,20.8623214 L130.588333,14.8861356 L123.434421,14.8861356 L123.434421,4.45497487 L127.254471,4.45497487 C128.608853,4.45497487 129.72014,4.67229072 130.623061,5.14314172 C131.525982,5.61399273 132.46363,6.37459819 133.436007,7.46117743 L133.436007,0 L113.432836,0 C113.953752,0.651947542 114.301029,1.34011439 114.509395,2.06450055 C114.752489,2.78888671 114.856673,4.02034318 114.856673,5.79508927 L114.856673,30.0258063 C114.856673,31.7281137 114.752489,32.9595702 114.509395,33.7201757 C114.301029,34.4807811 113.919024,35.2051673 113.432836,35.8208955 L134.998754,35.8208955 L136.318408,28.3597181 Z" id="Shape" fill="#FFFFFF"></path>
                <path d="M151.611157,4.49573992 C151.718261,4.45948396 151.861065,4.42322799 151.968168,4.42322799 C152.110973,4.42322799 152.32518,4.38697202 152.610789,4.38697202 C154.57435,4.38697202 156.109499,4.93081153 157.251935,5.98223458 C158.394371,7.03365762 158.965589,8.44764034 158.965589,10.2604387 C158.965589,12.182005 158.322968,13.8135235 157.073429,15.1187383 C155.82389,16.4239531 154.003132,17.3303523 151.611157,17.8379358 L151.611157,4.49573992 Z M152.218076,33.5367696 L152.218076,33.5367696 C151.789663,32.7391383 151.611157,31.4339235 151.611157,29.6211251 L151.611157,20.8471811 L157.43044,29.6573811 C158.608577,31.941507 159.786715,33.5730256 160.929151,34.4431688 C162.071587,35.313312 163.535333,35.7846396 165.284688,35.7846396 L166.105814,35.7846396 L166.64133,35.7846396 L172.139303,35.3495679 C171.175373,34.3344009 170.318546,33.3554898 169.568823,32.3765786 C168.819099,31.3976675 168.176479,30.4550124 167.676663,29.5486132 L161.893081,18.5630552 C163.892344,17.4753762 165.35609,16.2426733 166.284319,14.7924346 C167.212548,13.3421959 167.712364,11.6744214 167.712364,9.71659919 C167.712364,6.48981812 166.569928,4.06066832 164.285056,2.4291498 C162.000184,0.833887244 158.537175,0 153.896029,0 L141.293532,0 C141.829049,0.616351441 142.18606,1.23270288 142.435968,1.92156626 C142.650175,2.61042963 142.79298,3.77062058 142.79298,5.43839507 L142.79298,29.6573811 C142.79298,31.4701795 142.685876,32.7753943 142.435968,33.5730256 C142.221762,34.4069128 141.829049,35.1320321 141.293532,35.8208955 L154.181638,35.8208955 C153.253409,35.1320321 152.575088,34.4069128 152.182375,33.5730256 L152.218076,33.5367696 Z" id="Shape" fill="#FFFFFF"></path>
                <path d="M208.665323,35.8208955 L209.950249,28.3597181 C208.734778,29.4462973 207.415125,30.1706835 206.026016,30.6415345 C204.636907,31.1123855 202.969976,31.3297013 201.025223,31.3297013 C200.469579,31.3297013 199.879208,31.293482 199.254109,31.2210434 C198.62901,31.1486048 197.899727,31.0037276 197.066262,30.7864117 L197.066262,19.3773297 L200.226485,19.3773297 C201.094678,19.3773297 201.893416,19.522207 202.553243,19.7757421 C203.21307,20.0292773 203.768713,20.3914704 204.220174,20.8623214 L204.220174,14.8861356 L197.066262,14.8861356 L197.066262,4.45497487 L200.886312,4.45497487 C202.240693,4.45497487 203.351981,4.67229072 204.254902,5.14314172 C205.157822,5.61399273 206.095471,6.37459819 207.067847,7.46117743 L207.067847,0 L187.064677,0 C187.585593,0.651947542 187.93287,1.34011439 188.175964,2.06450055 C188.38433,2.78888671 188.523241,4.02034318 188.523241,5.79508927 L188.523241,30.0258063 C188.523241,31.7281137 188.419058,32.9595702 188.175964,33.7201757 C187.967598,34.4807811 187.585593,35.2051673 187.064677,35.8208955 L208.630595,35.8208955 L208.665323,35.8208955 Z" id="Shape" fill="#000000"></path>
                <path d="M230.567332,35.7846762 C233.67534,35.7846762 236.283209,35.4949218 238.355214,34.9154128 C240.391496,34.3359039 242.177707,33.3942019 243.6424,32.0903068 C245.607233,30.35178 247.143375,28.2510602 248.179378,25.8968052 C249.21538,23.5063308 249.751244,20.8623214 249.751244,17.9647767 C249.751244,12.3145647 247.893584,7.89580912 244.285437,4.74472934 C240.641565,1.55743024 235.568724,0 229.03119,0 L215.920398,0 C216.456261,0.543289619 216.813504,1.15901785 217.063573,1.73852678 C217.277919,2.35425501 217.420816,3.40461494 217.420816,4.81716795 L217.420816,30.1706835 C217.420816,31.8367717 217.313643,32.9957895 217.063573,33.756395 C216.849228,34.5170004 216.456261,35.2051673 215.920398,35.8208955 L230.567332,35.8208955 L230.567332,35.7846762 Z M226.208976,4.81716795 L226.208976,4.81716795 C226.887737,4.70851003 227.566497,4.5998521 228.209533,4.5636328 C228.852569,4.52741349 229.459881,4.45497487 230.031469,4.45497487 C233.389546,4.45497487 236.033139,5.65021203 237.997972,8.07690566 C239.927081,10.46738 240.927359,13.763337 240.927359,17.9285574 C240.927359,22.0213392 239.927081,25.2810769 237.926524,27.7077706 C235.925967,30.1344642 233.318098,31.3297013 230.031469,31.3297013 C229.388433,31.3297013 228.781121,31.293482 228.138085,31.2210434 C227.495049,31.1123855 226.852012,31.0037276 226.173252,30.822631 L226.173252,4.81716795 L226.208976,4.81716795 Z" id="Shape" fill="#000000"></path>
                <path d="M264.769677,7.67849328 C266.714091,5.54155411 269.392247,4.45497487 272.730771,4.45497487 C276.216042,4.45497487 279.040946,5.79508927 281.205483,8.51153736 C283.37002,11.2279855 284.433945,14.8136969 284.433945,19.2686718 C284.433945,23.0354798 283.443395,25.9692438 281.49898,28.1061829 C279.517878,30.2431221 276.839722,31.293482 273.464512,31.293482 C269.97924,31.293482 267.154336,29.9533676 265.026486,27.2007002 C262.861949,24.4842521 261.798024,20.8985407 261.798024,16.3711272 C261.798024,12.6767578 262.751888,9.77921314 264.73299,7.64227397 L264.769677,7.67849328 Z M280.728551,34.5532197 L280.728551,34.5532197 C283.113211,33.7201757 285.241061,32.5249385 287.112101,30.931289 C289.12989,29.2652008 290.707434,27.2369195 291.844733,24.9551031 C292.982032,22.6370674 293.532338,20.2828124 293.532338,17.8923381 C293.532338,12.6043192 291.624611,8.33044082 287.809156,4.99826449 C284.030388,1.66608816 279.11432,0 273.097641,0 C270.456172,0 267.924765,0.434631695 265.540105,1.26767578 C263.118759,2.10071986 261.027596,3.29595702 259.156555,4.81716795 C257.10208,6.55569473 255.524536,8.58397597 254.423924,10.8657924 C253.286624,13.1476088 252.736318,15.4656445 252.736318,17.8561188 C252.736318,23.1079184 254.644046,27.4180161 258.459501,30.7864117 C262.238269,34.1548074 267.154336,35.8208955 273.097641,35.8208955 C275.775797,35.8208955 278.343892,35.4224831 280.728551,34.5894391 L280.728551,34.5532197 Z" id="Shape" fill="#000000"></path>
                <path d="M304.500946,35.8208955 C303.804262,35.0602901 303.290916,34.3359039 302.997575,33.647737 C302.704234,32.9957895 302.557564,32.235184 302.557564,31.40214 C302.557564,30.931289 302.594232,30.3155607 302.630899,29.6273939 C302.667567,28.939227 302.777569,28.1424022 302.850905,27.2731389 L304.427611,12.9665122 L310.147754,28.3597181 C311.027776,30.5690959 312.0178,32.1989647 313.227831,33.3217633 C314.364526,34.4083425 315.941232,35.2413866 317.884614,35.8208955 L324.851455,13.2200474 L326.574831,29.6636132 C326.574831,29.8084904 326.611499,29.9895869 326.611499,30.1706835 C326.611499,30.35178 326.648166,30.6053152 326.648166,30.9675083 C326.648166,31.9092103 326.538163,32.7784737 326.28149,33.5752984 C326.024817,34.3721232 325.731477,35.1327287 325.254798,35.8208955 L338.308458,35.8208955 C337.098427,34.3721232 336.291741,32.0540875 335.925065,28.8667884 C335.888397,28.6494726 335.888397,28.468376 335.888397,28.3597181 L333.395002,6.30215958 L333.395002,6.15728234 C333.321666,5.43289619 333.284999,4.92582588 333.284999,4.63607141 C333.284999,3.73058871 333.431669,2.89754463 333.72501,2.20937778 C334.01835,1.52121093 334.531697,0.796824774 335.265048,0 L323.934765,0 L317.297932,21.876462 L309.414402,0 L298.304124,0 C298.890806,0.833044082 299.330817,1.66608816 299.58749,2.46291294 C299.844163,3.29595702 299.990833,4.16522041 299.990833,5.10692242 C299.990833,5.36045757 299.954166,5.72265065 299.954166,6.19350165 C299.917498,6.66435266 299.844163,7.3163002 299.770828,8.11312497 L297.167429,28.939227 C296.947424,30.931289 296.617415,32.3800613 296.214072,33.285544 C295.810729,34.227246 295.260715,35.0965094 294.527363,35.8208955 L304.537613,35.8208955 L304.500946,35.8208955 Z" id="Shape" fill="#000000"></path>
                <path d="M362.894179,35.8208955 L364.179104,28.3597181 C362.963634,29.4462973 361.64398,30.1706835 360.254871,30.6415345 C358.865762,31.1123855 357.198831,31.3297013 355.254079,31.3297013 C354.698435,31.3297013 354.108064,31.293482 353.482965,31.2210434 C352.857865,31.1486048 352.128583,31.0037276 351.295118,30.7864117 L351.295118,19.3773297 L354.455341,19.3773297 C355.323534,19.3773297 356.122272,19.522207 356.782099,19.7757421 C357.441925,20.0292773 357.997569,20.3914704 358.44903,20.8623214 L358.44903,14.8861356 L351.295118,14.8861356 L351.295118,4.45497487 L355.115168,4.45497487 C356.469549,4.45497487 357.580836,4.67229072 358.483757,5.14314172 C359.386678,5.61399273 360.324327,6.37459819 361.296703,7.46117743 L361.296703,0 L341.293532,0 C341.814448,0.651947542 342.161726,1.34011439 342.40482,2.06450055 C342.613186,2.78888671 342.752097,4.02034318 342.752097,5.79508927 L342.752097,30.0258063 C342.752097,31.7281137 342.647914,32.9595702 342.40482,33.7201757 C342.196453,34.4807811 341.814448,35.2051673 341.293532,35.8208955 L362.859451,35.8208955 L362.894179,35.8208955 Z" id="Shape" fill="#000000"></path>
                <path d="M374.936239,33.8993293 C374.718923,33.3554898 374.574046,32.8116503 374.574046,32.3040667 C374.574046,31.7239712 374.682704,31.1438758 374.8638,30.5637803 C375.044897,30.0199408 375.370871,29.4035893 375.805502,28.7872379 L380.224258,22.007372 L387.4319,35.8208955 L400,35.8208955 C399.022079,34.8782404 398.189035,34.0080972 397.428429,33.1742099 C396.667824,32.3403227 396.088315,31.5426914 395.581244,30.7813161 L387.721655,16.6052329 L398.478789,0 L387.359462,0 C387.93897,0.616351441 388.373602,1.19644692 388.663357,1.74028642 C388.953111,2.28412593 389.097988,2.7554535 389.097988,3.22678107 C389.097988,3.69810865 388.98933,4.20569219 388.735795,4.78578766 C388.518479,5.36588313 388.192506,5.94597861 387.794093,6.56233005 L384.606794,11.5293975 L378.703047,0 L365.664096,0 C366.424702,0.725119343 367.112868,1.48649465 367.692377,2.3203819 C368.308106,3.15426914 368.887615,4.09692429 369.503343,5.11209137 L377.000739,17.1128165 L364.179104,35.8208955 L376.059037,35.8208955 C375.551967,35.0957762 375.153555,34.4431688 374.936239,33.8993293 Z" id="Shape" fill="#000000"></path>
            </g>
        </g>
    </g>
</svg>