
<svg width="334px" height="30px" viewBox="0 0 334 30" version="1.1" xmlns="http://www.w3.org/2000/svg" xmlns:xlink="http://www.w3.org/1999/xlink">
    <!-- Generator: Sketch 47 (45396) - http://www.bohemiancoding.com/sketch -->
    <desc>Created with Sketch.</desc>
    <defs></defs>
    <g id="Page-1" stroke="none" stroke-width="1" fill="none" fill-rule="evenodd">
        <g id="Logo">
            <path d="M0.960111722,1.62986886 C1.13467749,2.20334123 1.25105467,3.13900669 1.25105467,4.46704798 L1.25105467,24.2669363 C1.25105467,25.8968052 1.16377178,27.0739327 0.960111722,27.8285016 C0.785545954,28.5528877 0.465508714,29.2169084 0.0290942946,29.8507463 L9.60111722,29.8507463 C9.1647028,29.2169084 8.87375986,28.5528877 8.69919409,27.8285016 C8.49553403,27.1041154 8.40825114,25.8968052 8.40825114,24.2669363 L8.40825114,3.74266182 C10.270286,3.77284457 11.7250007,4.25576868 12.7723953,5.19143413 C13.8488842,6.15728234 14.3725815,7.45514088 14.3725815,9.08500973 C14.3725815,10.7450613 13.9070728,12.1636509 12.9760554,13.2804129 C12.045038,14.3971749 10.6485118,15.3630231 8.75738268,16.0874093 L8.87375986,16.0874093 C9.7174944,16.1477748 10.3284746,16.1779575 10.7067004,16.1779575 C14.0816386,16.1779575 16.7001251,15.4535714 18.6494428,13.9142508 C20.5696663,12.405113 21.5588723,10.3225028 21.5588723,7.66642017 C21.5588723,5.34234792 20.6860435,3.47101701 18.9403858,2.0826102 C17.1947281,0.694203402 14.8380903,0 11.8413779,0 L0,0 C0.465508714,0.513106862 0.75645166,1.05639648 0.960111722,1.62986886 Z" id="Shape" fill="#FFFFFF"></path>
            <path d="M34.9034205,6.3987444 C36.5237661,4.61796176 38.7555627,3.71247906 41.5376654,3.71247906 C44.4420583,3.71247906 46.7961452,4.82924105 48.6304986,7.0929478 C50.4037069,9.35665454 51.3208836,12.3447474 51.3208836,16.0572265 C51.3208836,19.1962332 50.4954246,21.6410365 48.875079,23.4218191 C47.224161,25.2026018 44.9923643,26.0779017 42.1796891,26.0779017 C39.2752962,26.0779017 36.9212093,24.9611397 35.148001,22.6672502 C33.3747927,20.4035435 32.4881886,17.4154506 32.4881886,13.642606 C32.4881886,10.5639648 33.283075,8.14934428 34.9339931,6.36856164 L34.9034205,6.3987444 Z M53.5221077,25.7760741 C55.2035983,24.3876673 56.5182183,22.697433 57.4659675,20.7959193 C58.4137168,18.8642229 58.8723051,16.9023437 58.8723051,14.9102818 C58.8723051,10.5035993 57.2825322,6.94203402 54.1029863,4.16522041 C50.9234404,1.3884068 46.8572903,0 41.843391,0 C39.6421669,0 37.5326604,0.362193079 35.5454442,1.05639648 C33.5276555,1.75059988 31.7850197,2.74663085 30.2258193,4.01430663 C28.5137562,5.46307894 27.1991362,7.15331331 26.2819595,9.05482698 C25.3342102,10.9563406 24.8756219,12.8880371 24.8756219,14.880099 C24.8756219,19.2565987 26.4348223,22.8483467 29.6449408,25.6553431 C32.8244867,28.4623395 36.8906367,29.8507463 41.843391,29.8507463 C44.0751876,29.8507463 46.2152666,29.5187359 48.2024828,28.8245325 C50.189699,28.1001464 51.9629073,27.1041154 53.5221077,25.7760741 Z" id="Shape" fill="#FFFFFF"></path>
            <path d="M74.3948333,29.8205635 C76.98484,29.8205635 79.158064,29.5791015 80.8847351,29.0961774 C82.581636,28.6132532 84.0701456,27.8285016 85.2907234,26.7419223 C86.928084,25.29315 88.2082022,23.5425501 89.0715378,21.580671 C89.9348733,19.588609 90.3814262,17.3852678 90.3814262,14.9706473 C90.3814262,10.2621372 88.8333762,6.57984094 85.8265869,3.95394111 C82.7900273,1.29785853 78.5626601,0 73.1147151,0 L62.1890547,0 C62.6356076,0.452741349 62.9333095,0.965848211 63.1417009,1.44877232 C63.320322,1.96187918 63.4394028,2.83717912 63.4394028,4.01430663 L63.4394028,25.1422362 C63.4394028,26.530643 63.3500922,27.4964913 63.1417009,28.1303291 C62.9333095,28.764167 62.6356076,29.3376394 62.1890547,29.8507463 L74.3948333,29.8507463 L74.3948333,29.8205635 Z M70.7628699,4.01430663 L70.7628699,4.01430663 C71.3285036,3.92375836 71.8941372,3.83321009 72.4300006,3.80302733 C72.9658641,3.77284457 73.4719574,3.71247906 73.9482804,3.71247906 C76.7466784,3.71247906 78.9496726,4.70851003 80.5870332,6.73075472 C82.1946235,8.72281665 83.0281889,11.4694475 83.0281889,14.9404645 C83.0281889,18.351116 82.1946235,21.0675641 80.5274928,23.0898088 C78.860362,25.1120535 76.6871381,26.1080845 73.9482804,26.1080845 C73.412417,26.1080845 72.9063237,26.0779017 72.3704603,26.0175362 C71.8345968,25.9269879 71.2987334,25.8364396 70.7330997,25.6855259 L70.7330997,4.01430663 L70.7628699,4.01430663 Z" id="Shape" fill="#FFFFFF"></path>
            <path d="M113.598673,23.6330984 C112.585781,24.5385811 111.48607,25.1422362 110.328479,25.5346121 C109.170888,25.9269879 107.781779,26.1080845 106.161152,26.1080845 C105.698115,26.1080845 105.206139,26.0779017 104.685223,26.0175362 C104.164307,25.9571707 103.556572,25.8364396 102.862018,25.6553431 L102.862018,16.1477748 L105.495537,16.1477748 C106.219031,16.1477748 106.884646,16.2685058 107.434502,16.4797851 C107.984357,16.6910644 108.447394,16.992892 108.823611,17.3852678 L108.823611,12.405113 L102.862018,12.405113 L102.862018,3.71247906 L106.045393,3.71247906 C107.174044,3.71247906 108.100117,3.8935756 108.852551,4.28595144 C109.604985,4.67832727 110.386359,5.31216516 111.196672,6.21764786 L111.196672,0 L94.5273632,0 C94.9614598,0.543289619 95.2508575,1.11676199 95.4244961,1.72041713 C95.6270745,2.32407226 95.7138939,3.35028598 95.7138939,4.82924105 L95.7138939,25.0215052 C95.7138939,26.4400948 95.6270745,27.4663085 95.4244961,28.1001464 C95.2508575,28.7339843 94.93252,29.3376394 94.5273632,29.8507463 L112.498962,29.8507463 L113.598673,23.6330984 Z" id="Shape" fill="#FFFFFF"></path>
            <path d="M126.342631,3.74644994 C126.431884,3.71623663 126.550888,3.68602332 126.64014,3.68602332 C126.759144,3.68602332 126.93765,3.65581002 127.175657,3.65581002 C128.811959,3.65581002 130.091249,4.10900961 131.043279,4.98519548 C131.995309,5.86138135 132.471324,7.03970028 132.471324,8.55036558 C132.471324,10.1516708 131.935807,11.5112696 130.894524,12.5989486 C129.853242,13.6866276 128.335944,14.4419602 126.342631,14.8649465 L126.342631,3.74644994 Z M126.848397,27.947308 L126.848397,27.947308 C126.491386,27.2826153 126.342631,26.1949362 126.342631,24.684271 L126.342631,17.3726509 L131.192034,24.7144843 C132.173815,26.6179225 133.155595,27.9775213 134.107625,28.7026406 C135.059655,29.42776 136.279444,29.820533 137.73724,29.820533 L138.421511,29.820533 L138.867775,29.820533 L143.44942,29.4579733 C142.646144,28.6120007 141.932122,27.7962415 141.307352,26.9804822 C140.682582,26.1647229 140.147066,25.379177 139.730552,24.6238443 L134.910901,15.4692126 C136.576953,14.5628135 137.796742,13.5355611 138.570266,12.3270288 C139.34379,11.1184966 139.760303,9.72868451 139.760303,8.09716599 C139.760303,5.40818176 138.808273,3.38389027 136.904214,2.0242915 C135.000154,0.694906037 132.114313,0 128.246691,0 L117.74461,0 C118.190874,0.513626201 118.488384,1.0272524 118.69664,1.60130521 C118.875146,2.17535803 118.99415,3.14218382 118.99415,4.53199589 L118.99415,24.7144843 C118.99415,26.2251496 118.904897,27.3128286 118.69664,27.9775213 C118.518135,28.6724273 118.190874,29.2766935 117.74461,29.8507463 L128.484698,29.8507463 C127.711174,29.2766935 127.145906,28.6724273 126.818646,27.9775213 L126.848397,27.947308 Z" id="Shape" fill="#FFFFFF"></path>
            <path d="M173.887769,29.8507463 L174.958541,23.6330984 C173.945649,24.5385811 172.845937,25.1422362 171.688346,25.5346121 C170.530755,25.9269879 169.141646,26.1080845 167.521019,26.1080845 C167.057983,26.1080845 166.566007,26.0779017 166.045091,26.0175362 C165.524175,25.9571707 164.91644,25.8364396 164.221885,25.6553431 L164.221885,16.1477748 L166.855404,16.1477748 C167.578899,16.1477748 168.244513,16.2685058 168.794369,16.4797851 C169.344225,16.6910644 169.807261,16.992892 170.183478,17.3852678 L170.183478,12.405113 L164.221885,12.405113 L164.221885,3.71247906 L167.40526,3.71247906 C168.533911,3.71247906 169.459984,3.8935756 170.212418,4.28595144 C170.964852,4.67832727 171.746226,5.31216516 172.55654,6.21764786 L172.55654,0 L155.887231,0 C156.321327,0.543289619 156.610725,1.11676199 156.813303,1.72041713 C156.986942,2.32407226 157.102701,3.35028598 157.102701,4.82924105 L157.102701,25.0215052 C157.102701,26.4400948 157.015882,27.4663085 156.813303,28.1001464 C156.639665,28.7339843 156.321327,29.3376394 155.887231,29.8507463 L173.858829,29.8507463 L173.887769,29.8507463 Z" id="Shape" fill="#000000"></path>
            <path d="M192.139444,29.8205635 C194.72945,29.8205635 196.902674,29.5791015 198.629345,29.0961774 C200.326246,28.6132532 201.814756,27.8285016 203.035334,26.7419223 C204.672694,25.29315 205.952812,23.5425501 206.816148,21.580671 C207.679484,19.588609 208.126036,17.3852678 208.126036,14.9706473 C208.126036,10.2621372 206.577987,6.57984094 203.571197,3.95394111 C200.534638,1.29785853 196.30727,0 190.859325,0 L179.933665,0 C180.380218,0.452741349 180.67792,0.965848211 180.886311,1.44877232 C181.064932,1.96187918 181.184013,2.83717912 181.184013,4.01430663 L181.184013,25.1422362 C181.184013,26.530643 181.094702,27.4964913 180.886311,28.1303291 C180.70769,28.764167 180.380218,29.3376394 179.933665,29.8507463 L192.139444,29.8507463 L192.139444,29.8205635 Z M188.50748,4.01430663 L188.50748,4.01430663 C189.073114,3.92375836 189.638747,3.83321009 190.174611,3.80302733 C190.710474,3.77284457 191.216568,3.71247906 191.692891,3.71247906 C194.491289,3.71247906 196.694283,4.70851003 198.331643,6.73075472 C199.939234,8.72281665 200.772799,11.4694475 200.772799,14.9404645 C200.772799,18.351116 199.939234,21.0675641 198.272103,23.0898088 C196.604972,25.1120535 194.431748,26.1080845 191.692891,26.1080845 C191.157027,26.1080845 190.650934,26.0779017 190.115071,26.0175362 C189.579207,25.9269879 189.043344,25.8364396 188.47771,25.6855259 L188.47771,4.01430663 L188.50748,4.01430663 Z" id="Shape" fill="#000000"></path>
            <path d="M220.641397,6.3987444 C222.261743,4.61796176 224.493539,3.71247906 227.275642,3.71247906 C230.180035,3.71247906 232.534122,4.82924105 234.337903,7.0929478 C236.141684,9.35665454 237.028288,12.3447474 237.028288,16.0572265 C237.028288,19.1962332 236.202829,21.6410365 234.582483,23.4218191 C232.931565,25.2026018 230.699769,26.0779017 227.887093,26.0779017 C224.9827,26.0779017 222.628614,24.9611397 220.855405,22.6672502 C219.051624,20.4035435 218.16502,17.4154506 218.16502,13.642606 C218.16502,10.5639648 218.959907,8.14934428 220.610825,6.36856164 L220.641397,6.3987444 Z M233.94046,28.7943498 L233.94046,28.7943498 C235.927676,28.1001464 237.700884,27.1041154 239.260084,25.7760741 C240.941575,24.3876673 242.256195,22.697433 243.203944,20.7959193 C244.151694,18.8642229 244.610282,16.9023437 244.610282,14.9102818 C244.610282,10.5035993 243.020509,6.94203402 239.840963,4.16522041 C236.69199,1.3884068 232.595267,0 227.581368,0 C225.380144,0 223.270637,0.362193079 221.283421,1.05639648 C219.265632,1.75059988 217.522997,2.74663085 215.963796,4.01430663 C214.251733,5.46307894 212.937113,7.15331331 212.019936,9.05482698 C211.072187,10.9563406 210.613599,12.8880371 210.613599,14.880099 C210.613599,19.2565987 212.203372,22.8483467 215.382918,25.6553431 C218.531891,28.4623395 222.628614,29.8507463 227.581368,29.8507463 C229.813164,29.8507463 231.953243,29.5187359 233.94046,28.8245325 L233.94046,28.7943498 Z" id="Shape" fill="#000000"></path>
            <path d="M253.750788,29.8507463 C253.170218,29.2169084 252.74243,28.6132532 252.497979,28.0397809 C252.253529,27.4964913 252.131303,26.8626534 252.131303,26.16845 C252.131303,25.7760741 252.16186,25.2629673 252.192416,24.6894949 C252.222972,24.1160225 252.314641,23.4520019 252.375754,22.7276157 L253.689676,10.8054269 L258.456461,23.6330984 C259.189813,25.4742466 260.014834,26.8324706 261.023192,27.7681361 C261.970438,28.6736188 263.28436,29.3678222 264.903845,29.8507463 L270.709546,11.0167062 L272.145693,24.7196776 C272.145693,24.8404087 272.176249,24.9913225 272.176249,25.1422362 C272.176249,25.29315 272.206805,25.5044293 272.206805,25.8062569 C272.206805,26.5910086 272.115136,27.3153947 271.901242,27.9794154 C271.687348,28.643436 271.442897,29.2772739 271.045665,29.8507463 L281.923715,29.8507463 C280.915356,28.643436 280.243117,26.7117396 279.937554,24.055657 C279.906998,23.8745605 279.906998,23.7236467 279.906998,23.6330984 L277.829168,5.25179965 L277.829168,5.13106862 C277.768055,4.52741349 277.737499,4.1048549 277.737499,3.86339284 C277.737499,3.10882393 277.859724,2.41462053 278.104175,1.84114815 C278.348625,1.26767578 278.776414,0.664020645 279.38754,0 L269.945638,0 L264.414944,18.230385 L257.845335,0 L248.58677,0 C249.075671,0.694203402 249.442347,1.3884068 249.656241,2.05242745 C249.870136,2.74663085 249.992361,3.47101701 249.992361,4.25576868 C249.992361,4.46704798 249.961805,4.76887554 249.961805,5.16125138 C249.931248,5.55362721 249.870136,6.09691683 249.809023,6.76093748 L247.639524,24.1160225 C247.456186,25.7760741 247.18118,26.9833844 246.84506,27.7379533 C246.508941,28.522705 246.050596,29.2470911 245.439469,29.8507463 L253.781345,29.8507463 L253.750788,29.8507463 Z" id="Shape" fill="#000000"></path>
            <path d="M302.411815,29.8507463 L303.482587,23.6330984 C302.469695,24.5385811 301.369984,25.1422362 300.212393,25.5346121 C299.054802,25.9269879 297.665693,26.1080845 296.045066,26.1080845 C295.582029,26.1080845 295.090053,26.0779017 294.569137,26.0175362 C294.048221,25.9571707 293.440486,25.8364396 292.745931,25.6553431 L292.745931,16.1477748 L295.379451,16.1477748 C296.102945,16.1477748 296.76856,16.2685058 297.318416,16.4797851 C297.868271,16.6910644 298.331308,16.992892 298.707525,17.3852678 L298.707525,12.405113 L292.745931,12.405113 L292.745931,3.71247906 L295.929306,3.71247906 C297.057958,3.71247906 297.98403,3.8935756 298.736464,4.28595144 C299.488898,4.67832727 300.270272,5.31216516 301.080586,6.21764786 L301.080586,0 L284.411277,0 C284.845374,0.543289619 285.134771,1.11676199 285.33735,1.72041713 C285.510988,2.32407226 285.626747,3.35028598 285.626747,4.82924105 L285.626747,25.0215052 C285.626747,26.4400948 285.539928,27.4663085 285.33735,28.1001464 C285.163711,28.7339843 284.845374,29.3376394 284.411277,29.8507463 L302.382876,29.8507463 L302.411815,29.8507463 Z" id="Shape" fill="#000000"></path>
            <path d="M312.446866,28.2494411 C312.265769,27.7962415 312.145038,27.3430419 312.145038,26.9200556 C312.145038,26.4366427 312.235586,25.9532298 312.3865,25.4698169 C312.537414,25.0166173 312.809059,24.5029911 313.171252,23.9893649 L316.853548,18.3394767 L322.859917,29.8507463 L333.333333,29.8507463 C332.518399,29.0652003 331.824196,28.340081 331.190358,27.6451749 C330.55652,26.9502689 330.073596,26.2855762 329.651037,25.6510967 L323.101379,13.8376941 L332.065658,0 L322.799551,0 C323.282475,0.513626201 323.644668,0.997039096 323.886131,1.45023869 C324.127593,1.90343827 324.248324,2.29621125 324.248324,2.68898423 C324.248324,3.08175721 324.157775,3.50474349 323.946496,3.98815638 C323.765399,4.47156928 323.493755,4.95498217 323.161744,5.46860838 L320.505662,9.60783129 L315.585872,0 L304.72008,0 C305.353918,0.604266119 305.92739,1.23874554 306.410314,1.93365158 C306.923421,2.62855762 307.406345,3.41410357 307.919452,4.26007614 L314.167283,14.2606804 L303.482587,29.8507463 L313.382531,29.8507463 C312.959973,29.2464801 312.627962,28.7026406 312.446866,28.2494411 Z" id="Shape" fill="#000000"></path>
        </g>
    </g>
</svg>